<svg xmlns="http://www.w3.org/2000/svg" viewBox="0 0 560 120" role="img" aria-labelledby="title desc">
  <title id="title">Robinson PrintWorks</title>
  <desc id="desc">Deep navy and cyan Robinson PrintWorks mark with engineered wordmark.</desc>
  <defs>
    <linearGradient id="markEdge" x1="10" y1="14" x2="86" y2="94" gradientUnits="userSpaceOnUse">
      <stop stop-color="#22D3EE" />
      <stop offset="1" stop-color="#0891B2" />
    </linearGradient>
    <linearGradient id="wordAccent" x1="284" y1="0" x2="420" y2="0" gradientUnits="userSpaceOnUse">
      <stop stop-color="#F8FAFC" />
      <stop offset="1" stop-color="#22D3EE" />
    </linearGradient>
  </defs>

  <rect width="560" height="120" rx="28" fill="#061B33" />
  <path d="M35 24h58l13 13v46L93 96H35L22 83V37l13-13Z" fill="#0B213D" stroke="url(#markEdge)" stroke-width="4" />
  <path d="M35 24h58l13 13" fill="none" stroke="#F8FAFC" stroke-width="2" opacity="0.32" stroke-linecap="round" />
  <path d="M44 82V39h20c10.3 0 16.2 5.7 16.2 14.3 0 8.8-6 14.5-16.2 14.5H54.6V82H44Zm10.6-22.5h8.7c4 0 6.3-2.3 6.3-6.1 0-3.6-2.3-5.9-6.3-5.9h-8.7v12Z" fill="#F8FAFC" />
  <path d="M75 82 66.8 58.5h10.1l4.2 13.3L87 39h8.6L86 82H75Z" fill="#22D3EE" />

  <g font-family="'JetBrains Mono', 'SFMono-Regular', Consolas, 'Liberation Mono', monospace" font-weight="800">
    <text x="128" y="55" font-size="34" letter-spacing="-1.5" fill="#F8FAFC">Robinson</text>
    <text x="128" y="91" font-size="34" letter-spacing="-1.5" fill="url(#wordAccent)">PrintWorks</text>
  </g>
  <path d="M128 101h286" stroke="#22D3EE" stroke-width="2" opacity="0.72" />
</svg>
